<svg xmlns="http://www.w3.org/2000/svg" version="1.1" xmlns:xlink="http://www.w3.org/1999/xlink" width="852.398050708716" height="200" viewBox="0 11.039999961853027 228.16000366210938 45.87999725341797"><path d="M13 36.04L13 36.04Q12.04 34.76 10.52 32.48L10.52 32.48Q0 31.44 0 28.08L0 28.08Q0 27.32 0.78 26.84Q1.56 26.36 3.16 26.36L3.16 26.36Q7.16 26.36 11.12 31.44L11.12 31.44Q15.12 31.84 20.20 31.84L20.20 31.84L20.64 31.84Q25.76 28.76 30.16 25.64L30.16 25.64Q31.96 22.36 33.28 20.22Q34.60 18.08 36.48 15.76L36.48 15.76Q40.20 11.04 44.32 11.04L44.32 11.04Q45.40 11.04 45.40 12L45.40 12Q45.40 14.32 41.56 18.08Q37.72 21.84 31.36 26.16L31.36 26.16Q29.44 29.84 28.48 31.52L28.48 31.52Q34.08 31.08 36.56 30.16L36.56 30.16L36.68 30.16Q36.84 30.16 36.84 30.38Q36.84 30.60 36.56 31L36.56 31Q33.56 31.92 27.92 32.44L27.92 32.44Q25.76 36.16 23.74 38.22Q21.72 40.28 19.68 40.28L19.68 40.28Q16.40 40.28 13.48 36.64L13.48 36.64Q7.76 39.52 3.36 41.04L3.36 41.04Q2.76 41.24 1.98 41.24Q1.20 41.24 1.20 40.64L1.20 40.64Q1.20 40.32 1.52 40.06Q1.84 39.80 2.36 39.80L2.36 39.80Q5.56 39.80 13 36.04ZM20.64 32.84L20.64 32.84Q17.60 34.56 14.64 36.08L14.64 36.08Q17.32 39.40 19.52 39.40L19.52 39.40Q21.16 39.40 22.78 37.64Q24.40 35.88 26.36 32.56L26.36 32.56Q23.92 32.76 20.64 32.84ZM43.20 12L43.20 12Q40.44 12 37.64 15.68L37.64 15.68Q35.32 18.80 32.56 23.92L32.56 23.92Q37.60 20.20 40.64 17.14Q43.68 14.08 43.68 12.40L43.68 12.40Q43.68 12 43.20 12ZM1.92 27.92L1.92 27.92Q1.92 30.20 9.64 31.24L9.64 31.24Q6.52 27.08 3.36 27.08L3.36 27.08Q1.92 27.08 1.92 27.92ZM14.16 35.48L14.16 35.48Q16.64 34.16 18.92 32.84L18.92 32.84L18.76 32.84Q15.28 32.84 12.04 32.60L12.04 32.60Q13.56 34.72 14.16 35.48ZM29.08 27.68L29.08 27.68Q26.92 29.12 22.36 31.84L22.36 31.84Q25.44 31.76 26.88 31.64L26.88 31.64Q27.64 30.32 29.08 27.68ZM36.92 39.48L36.92 39.48Q36.92 38.88 37.50 37.92Q38.08 36.96 38.12 36.80Q38.16 36.64 38.04 36.64Q37.92 36.64 37.70 36.86Q37.48 37.08 35.26 38.54Q33.04 40 32.20 40L32.20 40Q31.64 40 31.64 39.28Q31.64 38.56 33.88 35.56Q36.12 32.56 37.04 32.56L37.04 32.56Q37.24 32.56 37.42 32.74Q37.60 32.92 37.60 33.02Q37.60 33.12 35.54 35.48Q33.48 37.84 33.48 38.52L33.48 38.52Q33.48 38.68 33.64 38.68L33.64 38.68Q34.40 38.68 36.92 36.64Q39.44 34.60 40.50 33.48Q41.56 32.36 42.16 32.36Q42.76 32.36 42.76 32.88L42.76 32.88Q42.76 33.20 42.52 33.52Q42.28 33.84 41.62 34.66Q40.96 35.48 40.40 36.20L40.40 36.20Q38.84 38.20 38.84 38.70Q38.84 39.20 39.26 39.20Q39.68 39.20 41.32 38.08L41.32 38.08Q44.36 36.08 46.88 34.04L46.88 34.04L47.76 33.32Q48.04 33.12 48.24 33.12Q48.44 33.12 48.44 33.36L48.44 33.36L48.44 33.48Q48.60 33.48 46.30 35.24Q44 37 41.38 38.76Q38.76 40.52 38.08 40.52L38.08 40.52Q36.92 40.52 36.92 39.48ZM56.80 33.52L56.80 33.52L57.72 33.52Q54 36.88 50.36 37.36L50.36 37.36Q49.48 38.64 48.30 39.56Q47.12 40.48 46.32 40.48L46.32 40.48Q45.36 40.48 45.36 39.36Q45.36 38.24 46.36 36.16L46.36 36.16Q44.60 34.60 44.60 32.68L44.60 32.68Q44.60 31.64 45.32 31Q46.04 30.36 47.36 30.36Q48.68 30.36 49.48 30.76L49.48 30.76Q53.40 24.68 58.48 17.92L58.48 17.92L60.20 15.64Q60.60 15.20 61 15.20L61 15.20Q61.60 15.20 61.68 15.80L61.68 15.80L61.68 16.08Q61.68 16.16 61.48 16.44L61.48 16.44Q53.60 26.80 50.48 31.40L50.48 31.40Q51.52 32.44 51.52 33.84Q51.52 35.24 50.84 36.60L50.84 36.60Q53.56 36.28 56.80 33.52ZM45.80 32.76L45.80 32.76Q45.80 33.96 46.88 35.12L46.88 35.12Q47.64 33.72 49.08 31.44L49.08 31.44Q48.52 31.12 47.84 31.12L47.84 31.12Q45.80 31.12 45.80 32.76ZM47.80 35.88L47.80 35.88Q48.76 36.48 49.76 36.60L49.76 36.60Q50.48 35.32 50.48 34.24Q50.48 33.16 49.92 32.28L49.92 32.28Q48.56 34.28 47.80 35.88ZM47.64 38.72L47.64 38.72Q48.32 38.72 49.28 37.40L49.28 37.40Q48.32 37.40 47.36 36.88L47.36 36.88Q47.16 37.56 47.16 37.88L47.16 37.88Q47.16 38.72 47.64 38.72ZM69.04 34.04L69.92 33.32Q70.20 33.12 70.44 33.12Q70.68 33.12 70.68 33.36L70.68 33.36L70.68 33.48Q67.52 36.12 64.48 38.20L64.48 38.20Q61.44 40.52 60.26 40.52Q59.08 40.52 59.08 39.56L59.08 39.56Q59.08 38.52 60.60 36.04Q62.12 33.56 62.12 33.38Q62.12 33.20 61.96 33.20L61.96 33.20Q61.44 33.20 58.78 35.50Q56.12 37.80 54.12 39.76L54.12 39.76Q53.36 40.44 53.06 40.44Q52.76 40.44 52.76 40Q52.76 39.56 53.28 38.88L53.28 38.88L67.24 17.60Q67.68 16.92 68.42 16.92Q69.16 16.92 69.16 17.40L69.16 17.40Q69.16 17.68 68.94 18Q68.72 18.32 66.24 21.82Q63.76 25.32 63.38 25.96Q63 26.60 59.90 31.24Q56.80 35.88 56.62 36.14Q56.44 36.40 56.44 36.56Q56.44 36.72 56.58 36.72Q56.72 36.72 56.76 36.68L56.76 36.68Q58.04 35.40 60.26 33.70Q62.48 32 63.32 32L63.32 32Q63.64 32 63.88 32.22Q64.12 32.44 64.12 32.94Q64.12 33.44 62.56 35.66Q61 37.88 61 38.54Q61 39.20 61.42 39.20Q61.84 39.20 63.52 38.08L63.52 38.08Q66.52 36.08 69.04 34.04L69.04 34.04ZM72.96 36.56L72.96 36.56Q75.20 36.56 78.32 34.04L78.32 34.04L79 34.24Q75.08 37.52 72.24 37.52L72.24 37.52Q71.92 37.52 71.76 37.48L71.76 37.48Q70.68 38.80 69.40 39.62Q68.12 40.44 67.16 40.44L67.16 40.44Q65.64 40.44 65.64 38.74Q65.64 37.04 68.48 34.20L68.48 34.20Q68 33.04 68 31.76Q68 30.48 68.92 29.68Q69.84 28.88 71.06 28.88Q72.28 28.88 73.12 29.68Q73.96 30.48 73.96 31.96L73.96 31.96Q73.96 34.24 72.48 36.52L72.48 36.52Q72.64 36.56 72.96 36.56ZM71.68 36.16L71.68 36.16Q72.92 34.08 72.92 32.62Q72.92 31.16 72.20 30.46Q71.48 29.76 70.80 29.76L70.80 29.76Q69.40 29.76 69.40 31.20Q69.40 32.64 70.04 34.06Q70.68 35.48 71.68 36.16ZM67.28 38.52L67.28 38.52Q67.28 39.32 68.32 39.32Q69.36 39.32 70.96 37.20L70.96 37.20Q69.88 36.64 69.04 35.24L69.04 35.24Q67.28 37.16 67.28 38.52ZM82 34.28L82 34.28L83.28 32.32Q83.16 32.28 83.04 32.28L83.04 32.28Q81.36 32.28 78.64 34.84Q75.92 37.40 75.92 38.44L75.92 38.44Q75.92 38.72 76.24 38.72L76.24 38.72Q77.24 38.72 79.28 37.02Q81.32 35.32 82 34.28ZM90.92 33.44L90.92 33.52Q82.60 40.24 80.84 40.24L80.84 40.24Q80.16 40.24 80.16 39.44Q80.16 38.64 80.76 36.76L80.76 36.76Q80.76 36.72 80.68 36.72L80.68 36.72Q76.08 40.52 74.56 40.52L74.56 40.52Q73.52 40.52 73.52 39.76L73.52 39.76Q73.52 38.08 77.14 34.84Q80.76 31.60 82.92 31.60L82.92 31.60Q83.20 31.60 83.52 32L83.52 32Q84.44 30.64 93.84 17.24L93.84 17.24Q94.84 16 95.46 16Q96.08 16 96.08 16.40L96.08 16.40Q96.08 17.40 89.20 25.84L89.20 25.84Q86.64 29.04 84.50 32.50Q82.36 35.96 82.36 37.76L82.36 37.76Q82.36 38.52 82.80 38.52L82.80 38.52Q83.32 38.52 84.64 37.60L84.64 37.60Q87.36 35.64 89.40 34L89.40 34L90.16 33.36Q90.44 33.16 90.68 33.16Q90.92 33.16 90.92 33.44L90.92 33.44ZM99.44 34.20L100.44 33.36Q100.72 33.16 100.96 33.16Q101.20 33.16 101.20 33.44L101.20 33.44L101.20 33.52Q97.04 36.96 94.28 38.68Q91.52 40.40 89.28 40.40L89.28 40.40Q87.48 40.40 87.48 38.64L87.48 38.64Q87.48 36.04 90.12 33.30Q92.76 30.56 94.56 30.56L94.56 30.56Q95.56 30.56 95.56 31.68L95.56 31.68Q95.36 33.88 89.24 37.60L89.24 37.60L89.24 38Q89.24 39.32 90.62 39.32Q92 39.32 93.60 38.40L93.60 38.40Q96.72 36.56 99.44 34.20L99.44 34.20ZM93.52 31.80L93.52 31.80Q92.64 31.80 91.26 33.28Q89.88 34.76 89.40 36.64L89.40 36.64Q91.32 35.48 92.64 34.18Q93.96 32.88 93.96 32.34Q93.96 31.80 93.52 31.80ZM109.76 34.20L110.76 33.36Q111.04 33.16 111.28 33.16Q111.52 33.16 111.52 33.44L111.52 33.44L111.52 33.52Q107.36 36.96 104.60 38.68Q101.84 40.40 99.60 40.40L99.60 40.40Q97.80 40.40 97.80 38.64L97.80 38.64Q97.80 36.04 100.44 33.30Q103.08 30.56 104.88 30.56L104.88 30.56Q105.88 30.56 105.88 31.68L105.88 31.68Q105.68 33.88 99.56 37.60L99.56 37.60L99.56 38Q99.56 39.32 100.94 39.32Q102.32 39.32 103.92 38.40L103.92 38.40Q107.04 36.56 109.76 34.20L109.76 34.20ZM103.84 31.80L103.84 31.80Q102.96 31.80 101.58 33.28Q100.20 34.76 99.72 36.64L99.72 36.64Q101.64 35.48 102.96 34.18Q104.28 32.88 104.28 32.34Q104.28 31.80 103.84 31.80ZM125.04 33.36L125.04 33.48Q116.60 40.52 114.60 40.52L114.60 40.52Q113.44 40.52 113.44 39.58Q113.44 38.64 115.64 36.06Q117.84 33.48 117.84 32.76L117.84 32.76Q117.76 32.68 117.68 32.68L117.68 32.68Q116.56 32.68 114.08 34.40L114.08 34.40Q98 56.92 95.80 56.92L95.80 56.92Q95.36 56.92 95.06 56.62Q94.76 56.32 94.76 55.72L94.76 55.72Q94.76 52.96 100.20 46.48Q105.64 40 111.36 35.56L111.36 35.56L114.88 30.44L114.88 30.40Q114.88 30.28 114.72 30.28L114.72 30.28Q113.92 31.68 110.40 34.48L110.40 34.48L109.24 35.36L109.08 34.76Q112.12 32.28 114.72 29.64Q117.32 27 118.40 25.60L118.40 25.60L119.48 24.20Q120.04 23.44 120.72 23.44Q121.40 23.44 121.40 23.84L121.40 23.84Q121.40 24 121.30 24.12Q121.20 24.24 120.38 25.42Q119.56 26.60 117.96 28.86Q116.36 31.12 114.96 33.12L114.96 33.12Q117.28 31.80 118.46 31.80Q119.64 31.80 119.64 32.28L119.64 32.28Q119.64 33.88 116.44 37.20L116.44 37.20Q115.36 38.32 115.36 38.66Q115.36 39 115.94 39Q116.52 39 118 38L118 38Q120.92 36.04 123.40 34.04L123.40 34.04L124.28 33.32Q124.56 33.12 124.80 33.12Q125.04 33.12 125.04 33.36L125.04 33.36ZM96.32 55.60L96.32 55.60Q97.56 55.60 110.04 37.52L110.04 37.52Q104.76 42 100.42 47.30Q96.08 52.60 96.08 55.36L96.08 55.36Q96.08 55.60 96.32 55.60ZM129.92 40.64L129.92 40.64Q129.12 40.64 129.12 39.84L129.12 39.84Q129.12 37.68 133.98 31.64Q138.84 25.60 144.12 21.24L144.12 21.24Q146.04 17.20 146.04 14.96L146.04 14.96Q146.04 12.28 143.36 12.28L143.36 12.28Q140.84 12.28 137.42 14.80Q134 17.32 131.64 20.42Q129.28 23.52 129.28 25.28L129.28 25.28Q129.28 26.56 130.76 26.56L130.76 26.56Q132.88 26.56 135.38 24.40Q137.88 22.24 139.12 20.20L139.12 20.20Q139.56 19.48 139.84 19.48Q140.12 19.48 140.12 19.76Q140.12 20.04 139.96 20.24L139.96 20.24Q138.60 22.28 135.64 24.92Q132.68 27.56 130.24 27.56Q127.80 27.56 127.80 25.76L127.80 25.76Q127.80 24.20 129.48 21.72Q131.16 19.24 133.58 16.94Q136 14.64 139.02 12.98Q142.04 11.32 144.40 11.32L144.40 11.32Q147.48 11.32 147.48 14.36L147.48 14.36Q147.48 16.36 146.04 19.76L146.04 19.76Q150 16.84 152.40 16.84L152.40 16.84Q153.84 16.84 153.84 18.36Q153.84 19.88 151.16 24.26Q148.48 28.64 145.80 32.16L145.80 32.16L143.12 35.72Q143.12 35.80 143.16 35.80L143.16 35.80Q144.68 34.76 148.50 31.24Q152.32 27.72 155.54 25.16Q158.76 22.60 160.32 22.60L160.32 22.60Q161.24 22.60 161.24 23.52Q161.24 24.44 158.84 27.64Q156.44 30.84 154.04 34.20Q151.64 37.56 151.64 38.84Q151.64 40.12 152.72 40.12L152.72 40.12Q153.96 40.12 155.96 38.86Q157.96 37.60 158.76 36.84Q159.56 36.08 159.76 36.08Q159.96 36.08 159.96 36.24L159.96 36.24Q159.96 36.72 158.62 37.88Q157.28 39.04 155.26 40.08Q153.24 41.12 151.80 41.12L151.80 41.12Q149.88 41.12 149.88 39.54Q149.88 37.96 151.22 35.68Q152.56 33.40 154.16 31.44L154.16 31.44Q158.72 26 159.24 24.24L159.24 24.24Q159.24 23.80 158.84 23.80L158.84 23.80Q157.88 23.80 152.92 28.12Q147.96 32.44 145.64 34.68Q143.32 36.92 142.52 37.72Q141.72 38.52 141.28 39Q140.84 39.48 140.40 39.88L140.40 39.88Q139.56 40.64 139.28 40.64L139.28 40.64Q139.24 40.64 139.20 40.60L139.20 40.60Q138.84 40.44 138.84 40.04L138.84 40.04Q138.84 39.04 141.40 35.84L141.40 35.84Q145.92 30.24 149.10 25.20Q152.28 20.16 152.28 18.48L152.28 18.48Q152.28 17.84 151.48 17.84L151.48 17.84Q149.52 17.84 145.32 21.36L145.32 21.36Q142.28 27.60 137 34.12Q131.72 40.64 129.92 40.64ZM130.80 39.60L130.80 39.60Q131.84 39.60 136.04 34.14Q140.24 28.68 143.12 23.28L143.12 23.28Q138.56 27.48 134.46 32.58Q130.36 37.68 130.36 39.16L130.36 39.16Q130.36 39.60 130.80 39.60ZM167.08 36.56L167.08 36.56Q169.32 36.56 172.44 34.04L172.44 34.04L173.12 34.24Q169.20 37.52 166.36 37.52L166.36 37.52Q166.04 37.52 165.88 37.48L165.88 37.48Q164.80 38.80 163.52 39.62Q162.24 40.44 161.28 40.44L161.28 40.44Q159.76 40.44 159.76 38.74Q159.76 37.04 162.60 34.20L162.60 34.20Q162.12 33.04 162.12 31.76Q162.12 30.48 163.04 29.68Q163.96 28.88 165.18 28.88Q166.40 28.88 167.24 29.68Q168.08 30.48 168.08 31.96L168.08 31.96Q168.08 34.24 166.60 36.52L166.60 36.52Q166.76 36.56 167.08 36.56ZM165.80 36.16L165.80 36.16Q167.04 34.08 167.04 32.62Q167.04 31.16 166.32 30.46Q165.60 29.76 164.92 29.76L164.92 29.76Q163.52 29.76 163.52 31.20Q163.52 32.64 164.16 34.06Q164.80 35.48 165.80 36.16ZM161.40 38.52L161.40 38.52Q161.40 39.32 162.44 39.32Q163.48 39.32 165.08 37.20L165.08 37.20Q164.00 36.64 163.16 35.24L163.16 35.24Q161.40 37.16 161.40 38.52ZM189.48 33.36L189.48 33.48Q181.04 40.52 179.04 40.52L179.04 40.52Q177.88 40.52 177.88 39.56Q177.88 38.60 178.74 37.28Q179.60 35.96 180.46 34.94Q181.32 33.92 181.32 33.72Q181.32 33.52 181.20 33.52L181.20 33.52Q177.48 36 176.78 36.56Q176.08 37.12 174.50 38.40Q172.92 39.68 172.44 40Q171.96 40.32 171.40 40.32L171.40 40.32Q170.84 40.32 170.84 39.84L170.84 39.84Q170.84 39.28 173.08 36.32L173.08 36.32Q175.24 33.36 175.24 33L175.24 33Q175.24 32.92 175.10 32.92Q174.96 32.92 171.64 35.36L171.64 35.36L171.48 34.76Q174.32 32.48 175.32 31.84Q176.32 31.20 176.94 31.20Q177.56 31.20 177.56 31.80L177.56 31.80Q177.56 32.20 175.30 35.06Q173.04 37.92 173.04 38.14Q173.04 38.36 173.18 38.36Q173.32 38.36 177.74 35.14Q182.16 31.92 183.12 31.92L183.12 31.92Q183.40 31.92 183.66 32.14Q183.92 32.36 183.92 32.56L183.92 32.56Q183.92 33.04 181.80 35.74Q179.68 38.44 179.68 38.80Q179.68 39.16 180.18 39.16Q180.68 39.16 182.32 38.08L182.32 38.08Q185.32 36.12 187.84 34.04L187.84 34.04L188.72 33.32Q189 33.12 189.24 33.12Q189.48 33.12 189.48 33.36L189.48 33.36ZM191.56 34.28L191.56 34.28L192.84 32.32Q192.72 32.28 192.60 32.28L192.60 32.28Q190.92 32.28 188.20 34.84Q185.48 37.40 185.48 38.44L185.48 38.44Q185.48 38.72 185.80 38.72L185.80 38.72Q186.80 38.72 188.84 37.02Q190.88 35.32 191.56 34.28ZM200.48 33.44L200.48 33.52Q192.16 40.24 190.40 40.24L190.40 40.24Q189.72 40.24 189.72 39.44Q189.72 38.64 190.32 36.76L190.32 36.76Q190.32 36.72 190.24 36.72L190.24 36.72Q185.64 40.52 184.12 40.52L184.12 40.52Q183.08 40.52 183.08 39.76L183.08 39.76Q183.08 38.08 186.70 34.84Q190.32 31.60 192.48 31.60L192.48 31.60Q192.76 31.60 193.08 32L193.08 32Q194 30.64 203.40 17.24L203.40 17.24Q204.40 16 205.02 16Q205.64 16 205.64 16.40L205.64 16.40Q205.64 17.40 198.76 25.84L198.76 25.84Q196.20 29.04 194.06 32.50Q191.92 35.96 191.92 37.76L191.92 37.76Q191.92 38.52 192.36 38.52L192.36 38.52Q192.88 38.52 194.20 37.60L194.20 37.60Q196.92 35.64 198.96 34L198.96 34L199.72 33.36Q200 33.16 200.24 33.16Q200.48 33.16 200.48 33.44L200.48 33.44ZM203.84 35.20L203.84 35.20Q203.60 35.20 203.60 35.02Q203.60 34.84 203.88 34.60L203.88 34.60Q205.20 33.52 205.20 32.64L205.20 32.64Q205.20 32.08 204.20 32L204.20 32Q202.40 32.04 199.90 34.60Q197.40 37.16 197.40 38.44L197.40 38.44Q197.40 38.88 197.90 38.88Q198.40 38.88 199.24 38.20L199.24 38.20Q200.00 37.72 202.08 35.80L202.08 35.80Q202.56 35.32 203.00 35.32L203.00 35.32Q203.56 35.32 203.56 35.84L203.56 35.84Q203.56 36.04 203.44 36.16Q203.32 36.28 203.00 36.66Q202.68 37.04 202.44 37.36L202.44 37.36Q201.72 38.40 201.72 38.72L201.72 38.72Q201.72 39.52 202.36 39.52L202.36 39.52Q203.20 39.52 205.52 37.98Q207.84 36.44 209.76 34.88L209.76 34.88L211.68 33.36Q211.96 33.16 212.20 33.16Q212.44 33.16 212.44 33.44L212.44 33.44L212.44 33.52Q209.36 36.12 205.94 38.40Q202.52 40.68 201.44 40.68L201.44 40.68Q200.16 40.68 200.16 39.32L200.16 39.32Q200.16 39 200.28 38.72Q200.40 38.44 200.40 38.32Q200.40 38.20 200.32 38.16L200.32 38.16Q200.20 38.16 198.78 39.24Q197.36 40.32 196.30 40.32Q195.24 40.32 195.24 39.20Q195.24 38.08 196.74 36.18Q198.24 34.28 200.76 32.72Q203.28 31.16 205.68 31.16L205.68 31.16Q206.24 31.16 206.62 31.44Q207.00 31.72 207.00 32.30Q207.00 32.88 205.84 34.04Q204.68 35.20 203.84 35.20ZM220.36 34.20L221.36 33.36Q221.64 33.16 221.88 33.16Q222.12 33.16 222.12 33.44L222.12 33.44L222.12 33.52Q217.96 36.96 215.80 38.32L215.80 38.32Q213.00 40.44 211.08 40.44L211.08 40.44Q209.40 40.44 209.40 38.44L209.40 38.44Q209.40 35.76 212.86 30.50Q216.32 25.24 220.64 21.04Q224.96 16.84 227.16 16.84L227.16 16.84Q228.16 16.84 228.16 17.72L228.16 17.72Q228.16 19.92 222.90 24.98Q217.64 30.04 212.56 33.60L212.56 33.60Q211.08 36.44 211.08 37.92Q211.08 39.40 212.12 39.40Q213.16 39.40 214.84 38.20L214.84 38.20Q217.68 36.52 220.36 34.20L220.36 34.20ZM226.16 18.12L226.16 18.12Q224.48 18.12 220.20 22.96Q215.92 27.80 213.12 32.64L213.12 32.64Q217.72 29.36 222.12 24.62Q226.52 19.88 226.52 18.48L226.52 18.48Q226.52 18.12 226.16 18.12Z" fill="black"></path></svg>